<svg xmlns="http://www.w3.org/2000/svg" width="160" height="172" viewBox="0 0 160 172">
    <g fill="none" fill-rule="evenodd">
        <path fill="#D5D5D5" fill-rule="nonzero" d="M151 0c4.97 0 9 4.03 9 9v22c0 4.97-4.03 9-9 9H9c-4.97 0-9-4.03-9-9V9c0-4.97 4.03-9 9-9h142zm0 2H9C5.215 2 2.13 5.005 2.004 8.76L2 9v22c0 3.785 3.005 6.87 6.76 6.996L9 38h142c3.785 0 6.87-3.005 6.996-6.76L158 31V9c0-3.785-3.005-6.87-6.76-6.996L151 2z"/>
        <g opacity=".6">
            <path fill="#9B9B9B" d="M8 0h8c4.418 0 8 3.582 8 8v8c0 4.418-3.582 8-8 8H8c-4.418 0-8-3.582-8-8V8c0-4.418 3.582-8 8-8z" transform="translate(8 8)"/>
            <path fill="#D8D8D8" d="M12 6c3.314 0 6 2.686 6 6s-2.686 6-6 6-6-2.686-6-6 2.686-6 6-6zm0 1c-2.761 0-5 2.239-5 5s2.239 5 5 5 5-2.239 5-5-2.239-5-5-5z" transform="translate(8 8)"/>
            <path fill="#D8D8D8" d="M8.758 15.978L5.737 19 5 18.263l3.02-3.019c.222.267.47.513.738.734zM18.263 5l.737.737-2.501 2.5c-.22-.269-.467-.516-.734-.739L18.263 5z" transform="translate(8 8)"/>
        </g>
        <path fill="#E9E9E9" d="M40 13H90V20H40zM40 24H70V28H40z"/>
        <g opacity=".6">
            <path fill="#D5D5D5" fill-rule="nonzero" d="M151 0c4.97 0 9 4.03 9 9v22c0 4.97-4.03 9-9 9H9c-4.97 0-9-4.03-9-9V9c0-4.97 4.03-9 9-9h142zm0 2H9C5.215 2 2.13 5.005 2.004 8.76L2 9v22c0 3.785 3.005 6.87 6.76 6.996L9 38h142c3.785 0 6.87-3.005 6.996-6.76L158 31V9c0-3.785-3.005-6.87-6.76-6.996L151 2z" transform="translate(0 44)"/>
            <g>
                <path fill="#9B9B9B" d="M8 0h8c4.418 0 8 3.582 8 8v8c0 4.418-3.582 8-8 8H8c-4.418 0-8-3.582-8-8V8c0-4.418 3.582-8 8-8z" transform="translate(0 44) translate(8 8)"/>
                <path fill="#D8D8D8" d="M12 6c3.314 0 6 2.686 6 6s-2.686 6-6 6-6-2.686-6-6 2.686-6 6-6zm0 1c-2.761 0-5 2.239-5 5s2.239 5 5 5 5-2.239 5-5-2.239-5-5-5z" transform="translate(0 44) translate(8 8)"/>
                <path fill="#D8D8D8" d="M8.758 15.978L5.737 19 5 18.263l3.02-3.019c.222.267.47.513.738.734zM18.263 5l.737.737-2.501 2.5c-.22-.269-.467-.516-.734-.739L18.263 5z" transform="translate(0 44) translate(8 8)"/>
            </g>
            <path fill="#E9E9E9" d="M40 13H90V20H40zM40 24H70V28H40z" transform="translate(0 44)"/>
        </g>
        <g opacity=".4">
            <path fill="#D5D5D5" fill-rule="nonzero" d="M151 0c4.97 0 9 4.03 9 9v22c0 4.97-4.03 9-9 9H9c-4.97 0-9-4.03-9-9V9c0-4.97 4.03-9 9-9h142zm0 2H9C5.215 2 2.13 5.005 2.004 8.76L2 9v22c0 3.785 3.005 6.87 6.76 6.996L9 38h142c3.785 0 6.87-3.005 6.996-6.76L158 31V9c0-3.785-3.005-6.87-6.76-6.996L151 2z" transform="translate(0 88)"/>
            <g opacity=".6">
                <path fill="#9B9B9B" d="M8 0h8c4.418 0 8 3.582 8 8v8c0 4.418-3.582 8-8 8H8c-4.418 0-8-3.582-8-8V8c0-4.418 3.582-8 8-8z" transform="translate(0 88) translate(8 8)"/>
                <path fill="#D8D8D8" d="M12 6c3.314 0 6 2.686 6 6s-2.686 6-6 6-6-2.686-6-6 2.686-6 6-6zm0 1c-2.761 0-5 2.239-5 5s2.239 5 5 5 5-2.239 5-5-2.239-5-5-5z" transform="translate(0 88) translate(8 8)"/>
                <path fill="#D8D8D8" d="M8.758 15.978L5.737 19 5 18.263l3.02-3.019c.222.267.47.513.738.734zM18.263 5l.737.737-2.501 2.5c-.22-.269-.467-.516-.734-.739L18.263 5z" transform="translate(0 88) translate(8 8)"/>
            </g>
            <path fill="#E9E9E9" d="M40 13H90V20H40zM40 24H70V28H40z" transform="translate(0 88)"/>
        </g>
        <g opacity=".2">
            <path fill="#D5D5D5" fill-rule="nonzero" d="M151 0c4.97 0 9 4.03 9 9v22c0 4.97-4.03 9-9 9H9c-4.97 0-9-4.03-9-9V9c0-4.97 4.03-9 9-9h142zm0 2H9C5.215 2 2.13 5.005 2.004 8.76L2 9v22c0 3.785 3.005 6.87 6.76 6.996L9 38h142c3.785 0 6.87-3.005 6.996-6.76L158 31V9c0-3.785-3.005-6.87-6.76-6.996L151 2z" transform="translate(0 132)"/>
            <g opacity=".6">
                <path fill="#9B9B9B" d="M8 0h8c4.418 0 8 3.582 8 8v8c0 4.418-3.582 8-8 8H8c-4.418 0-8-3.582-8-8V8c0-4.418 3.582-8 8-8z" transform="translate(0 132) translate(8 8)"/>
                <path fill="#D8D8D8" d="M12 6c3.314 0 6 2.686 6 6s-2.686 6-6 6-6-2.686-6-6 2.686-6 6-6zm0 1c-2.761 0-5 2.239-5 5s2.239 5 5 5 5-2.239 5-5-2.239-5-5-5z" transform="translate(0 132) translate(8 8)"/>
                <path fill="#D8D8D8" d="M8.758 15.978L5.737 19 5 18.263l3.02-3.019c.222.267.47.513.738.734zM18.263 5l.737.737-2.501 2.5c-.22-.269-.467-.516-.734-.739L18.263 5z" transform="translate(0 132) translate(8 8)"/>
            </g>
            <path fill="#E9E9E9" d="M40 13H90V20H40zM40 24H70V28H40z" transform="translate(0 132)"/>
        </g>
    </g>
</svg>
