<svg xmlns="http://www.w3.org/2000/svg" xmlns:xlink="http://www.w3.org/1999/xlink" width="24" height="24" viewBox="0 0 24 24">
    <defs>
        <linearGradient id="74oa4yk0na" x1="0%" x2="100%" y1="0%" y2="100%">
            <stop offset="0%" stop-color="#57E3C8"/>
            <stop offset="100%" stop-color="#1C7A9A"/>
        </linearGradient>
        <filter id="lfn3sc97mb" width="150%" height="135.8%" x="-25%" y="-12.8%" filterUnits="objectBoundingBox">
            <feOffset dy="1" in="SourceAlpha" result="shadowOffsetOuter1"/>
            <feGaussianBlur in="shadowOffsetOuter1" result="shadowBlurOuter1" stdDeviation="1"/>
            <feColorMatrix in="shadowBlurOuter1" values="0 0 0 0 0 0 0 0 0 0 0 0 0 0 0 0 0 0 0.1 0"/>
        </filter>
        <path id="w7dgyaj0tc" d="M12.536 15.5v4.828l1.932-1.932.603.604-3.035 3.036L9 19l.604-.604 1.932 1.932V15.5h1zM15 2.5c2.167 0 3.932 1.724 3.998 3.875L19 6.5v6c0 2.167-1.724 3.932-3.875 3.998L15 16.5h-1.5v-1H15c1.62 0 2.939-1.283 2.998-2.888L18 12.5v-6c0-1.62-1.283-2.939-2.888-2.998L15 3.5H9c-1.62 0-2.939 1.283-2.998 2.888L6 6.5v6c0 1.62 1.283 2.939 2.888 2.998L9 15.5h1.5v1H9c-2.167 0-3.932-1.724-3.998-3.875L5 12.5v-6c0-2.167 1.724-3.932 3.875-3.998L9 2.5h6zM10.5 10c.552 0 1 .448 1 1v1.5c0 .552-.448 1-1 1H9c-.552 0-1-.448-1-1V11c0-.552.448-1 1-1h1.5zm4.5 0c.552 0 1 .448 1 1v1.5c0 .552-.448 1-1 1h-1.5c-.552 0-1-.448-1-1V11c0-.552.448-1 1-1H15zm-4.5-4.5c.552 0 1 .448 1 1V8c0 .552-.448 1-1 1H9c-.552 0-1-.448-1-1V6.5c0-.552.448-1 1-1h1.5zm4.5 0c.552 0 1 .448 1 1V8c0 .552-.448 1-1 1h-1.5c-.552 0-1-.448-1-1V6.5c0-.552.448-1 1-1H15z"/>
    </defs>
    <g fill="none" fill-rule="evenodd">
        <g>
            <g>
                <path fill="url(#74oa4yk0na)" d="M8 0h8c4.418 0 8 3.582 8 8v8c0 4.418-3.582 8-8 8H8c-4.418 0-8-3.582-8-8V8c0-4.418 3.582-8 8-8z" transform="translate(-20 -250) translate(20 250)"/>
                <g fill-rule="nonzero" transform="translate(-20 -250) translate(20 250)">
                    <use fill="#000" filter="url(#lfn3sc97mb)" xlink:href="#w7dgyaj0tc"/>
                    <use fill="#FFF" xlink:href="#w7dgyaj0tc"/>
                </g>
            </g>
        </g>
    </g>
</svg>
