<svg xmlns="http://www.w3.org/2000/svg" xmlns:xlink="http://www.w3.org/1999/xlink" width="48" height="48" viewBox="0 0 48 48">
    <defs>
        <linearGradient id="a" x1="3.451%" x2="79.243%" y1="10.012%" y2="67.009%">
            <stop offset="0%" stop-color="#0CBED4"/>
            <stop offset="100%" stop-color="#09F"/>
        </linearGradient>
        <path id="b" d="M16 0h16c8.837 0 16 7.163 16 16v16c0 8.837-7.163 16-16 16H16C7.163 48 0 40.837 0 32V16C0 7.163 7.163 0 16 0z"/>
    </defs>
    <g fill="none" fill-rule="evenodd">
        <path fill="url(#a)" d="M16 0h16c8.837 0 16 7.163 16 16v16c0 8.837-7.163 16-16 16H16C7.163 48 0 40.837 0 32V16C0 7.163 7.163 0 16 0z"/>
        <g>
            <mask id="c" fill="#fff">
                <use xlink:href="#b"/>
            </mask>
            <use fill="url(#a)" xlink:href="#b"/>
            <g fill="#FFF" mask="url(#c)">
                <path d="M24.616 37l36.445-21.04 1 1.731-38.105 22-.5-.866a4 4 0 0 0-6.928 4l.5.866-15.589 9-1-1.732 13.928-8.041A6.002 6.002 0 0 1 24.616 37z"/>
                <path d="M37.41 24.995l.5.866-13.917 8.035a8.037 8.037 0 0 0-2.419-.913l13.647-7.879c-2.092-4.627-.373-10.176 4.117-12.77 4.491-2.592 10.157-1.306 13.118 2.82l6.105-3.525 1 1.732-7.794 4.5-.5-.866a8 8 0 0 0-13.857 8zM12.41 38.275a8.037 8.037 0 0 0-.419 2.551l-13.05 7.535-1-1.732 14.469-8.354z"/>
                <path d="M14.992 32.165l.5.866-19.053 11-1-1.732 17.344-10.014C8.495 23.82 11.53 13.38 19.848 8.577c6.496-3.75 14.358-2.992 19.961 1.304a12.108 12.108 0 0 0-1.984 1.035c-4.914-3.324-11.493-3.773-16.977-.607-7.653 4.418-10.275 14.203-5.856 21.856zM50.34 10.602l5.72-3.303 1 1.732-4.92 2.842a11.941 11.941 0 0 0-1.8-1.271z"/>
            </g>
        </g>
    </g>
</svg>
