<svg xmlns="http://www.w3.org/2000/svg" width="48" height="48" viewBox="0 0 48 48">
    <g fill="none" fill-rule="evenodd">
        <path fill="#9B9B9B" d="M16 0h16c8.837 0 16 7.163 16 16v16c0 8.837-7.163 16-16 16H16C7.163 48 0 40.837 0 32V16C0 7.163 7.163 0 16 0z"/>
        <path fill="#D8D8D8" d="M24 36c-6.627 0-12-5.373-12-12s5.373-12 12-12 12 5.373 12 12-5.373 12-12 12zm0-2c5.523 0 10-4.477 10-10s-4.477-10-10-10-10 4.477-10 10 4.477 10 10 10z"/>
        <path fill="#D8D8D8" d="M16.038 30.488c.446.535.941 1.027 1.479 1.469L11.474 38 10 36.526l6.038-6.038zM31.53 14.996L36.526 10 38 11.474l-5.001 5a11.067 11.067 0 0 0-1.469-1.478z"/>
    </g>
</svg>
