<svg xmlns="http://www.w3.org/2000/svg" width="24" height="24" viewBox="0 0 24 24">
    <defs>
        <linearGradient id="a" x1="0%" x2="101.907%" y1="0%" y2="100.907%">
            <stop offset="0%" stop-color="#3023AE"/>
            <stop offset="99.954%" stop-color="#7A47C2"/>
        </linearGradient>
    </defs>
    <g fill="none" fill-rule="evenodd">
        <path fill="url(#a)" d="M8 0h8a8 8 0 0 1 8 8v8a8 8 0 0 1-8 8H8a8 8 0 0 1-8-8V8a8 8 0 0 1 8-8z"/>
        <path fill="#FFF" d="M11 8h7v1h-7zM11 12h7v1h-7zM11 16h7v1h-7z"/>
        <path fill="#FFF" fill-rule="nonzero" d="M7 8v1h1V8H7zm0-1h1a1 1 0 0 1 1 1v1a1 1 0 0 1-1 1H7a1 1 0 0 1-1-1V8a1 1 0 0 1 1-1zM7 12v1h1v-1H7zm0-1h1a1 1 0 0 1 1 1v1a1 1 0 0 1-1 1H7a1 1 0 0 1-1-1v-1a1 1 0 0 1 1-1zM7 16v1h1v-1H7zm0-1h1a1 1 0 0 1 1 1v1a1 1 0 0 1-1 1H7a1 1 0 0 1-1-1v-1a1 1 0 0 1 1-1z"/>
    </g>
</svg>
